<svg xmlns="http://www.w3.org/2000/svg" width="172.603" height="19.177" viewBox="0 0 172.603 19.177">
  <g id="Group_10691" data-name="Group 10691" transform="translate(-126.872 -264.964)">
    <g id="Group_10594" data-name="Group 10594" transform="translate(126.872 264.964)">
      <path id="Path_14218" data-name="Path 14218" d="M316.2,288.385a1,1,0,0,0-1-1h-.824a1,1,0,0,0-1,1v2.058a2.584,2.584,0,0,1-2.584,2.584H294.433a2.584,2.584,0,0,1-2.584-2.584v-2.058a1,1,0,0,0-1-1h-.824a1,1,0,0,0-1,1v2.062a5.4,5.4,0,0,0,5.4,5.4H310.8a5.4,5.4,0,0,0,5.4-5.4Z" transform="translate(-241.441 -280.807)" fill="#fff"/>
      <path id="Path_14219" data-name="Path 14219" d="M517.586,274.575a5.27,5.27,0,0,0-5.314-4.91h-7.562a4,4,0,0,1-2.826-1.171l-1.506-1.506a1,1,0,0,0-1.413,0l-.581.581a1,1,0,0,0,0,1.413L499.7,270.3a7.461,7.461,0,0,0,5.275,2.185h7.495a2.353,2.353,0,0,1,2.344,2.181,2.391,2.391,0,0,1-2.41,2.519h-3.463a5.1,5.1,0,0,0,.578-2.359v-.4a1,1,0,0,0-1-1H507.7a1,1,0,0,0-1,1v.389a2.373,2.373,0,0,1-2.373,2.373h-.613a2.373,2.373,0,0,1-2.373-2.373v-.389a1,1,0,0,0-1-1h-.824a1,1,0,0,0-1,1v.4a5.105,5.105,0,0,0,.579,2.36h-3.823A2.584,2.584,0,0,1,492.7,274.6v-8.639a1,1,0,0,0-1-1h-.824a1,1,0,0,0-1,1V274.6a5.4,5.4,0,0,0,5.4,5.4h17.147A5.176,5.176,0,0,0,517.586,274.575Z" transform="translate(-383.345 -264.964)" fill="#fff"/>
      <rect id="Rectangle_2693" data-name="Rectangle 2693" width="2.82" height="15.041" rx="1.41" transform="translate(41.948 0)" fill="#fff"/>
      <rect id="Rectangle_2694" data-name="Rectangle 2694" width="2.82" height="13.537" rx="1.41" transform="translate(19.762 0)" fill="#fff"/>
      <rect id="Rectangle_2695" data-name="Rectangle 2695" width="10.247" height="2.82" rx="1.41" transform="translate(56.049 3.76)" fill="#fff"/>
      <rect id="Rectangle_2696" data-name="Rectangle 2696" width="2.82" height="5.698" rx="1.41" transform="translate(7.058 3.76)" fill="#fff"/>
      <path id="Path_14220" data-name="Path 14220" d="M212.566,287.387H205.24a5.4,5.4,0,0,0-5.4,5.4v.7a3.674,3.674,0,0,1-3.674,3.674h-.974a1,1,0,0,0-1,1v.824a1,1,0,0,0,1,1h.977a6.49,6.49,0,0,0,6.49-6.49v-.7a2.584,2.584,0,0,1,2.584-2.584h7.323a1,1,0,0,0,1-1v-.824A1,1,0,0,0,212.566,287.387Z" transform="translate(-174.437 -280.807)" fill="#fff"/>
      <rect id="Rectangle_2697" data-name="Rectangle 2697" width="8.085" height="2.82" rx="1.41" transform="translate(31.043 12.221)" fill="#fff"/>
      <path id="Path_14221" data-name="Path 14221" d="M409.56,280.981h-.824a1,1,0,0,0-1,1v4.032a2.584,2.584,0,0,1-2.584,2.584H403.6a1.41,1.41,0,0,1-1.41-1.41V283.86a1,1,0,0,0-1-1h-.822a1,1,0,0,0-1,1v3.325a1.41,1.41,0,0,1-1.41,1.41h-3.572a1.6,1.6,0,0,1-1.6-1.6V283.86a1,1,0,0,0-1-1h-.822a1,1,0,0,0-1,1V287a1.6,1.6,0,0,1-1.6,1.6H382.6a1,1,0,0,0-1,1v.728a1,1,0,0,0,1,1h4.932a5.414,5.414,0,0,0,3.968-1.716,5.413,5.413,0,0,0,3.968,1.716h1.387a5.413,5.413,0,0,0,3.968-1.716,5.413,5.413,0,0,0,3.968,1.716h.4a5.385,5.385,0,0,0,5.358-5.4v-3.942A1,1,0,0,0,409.56,280.981Z" transform="translate(-306.848 -276.28)" fill="#fff"/>
      <path id="Path_14222" data-name="Path 14222" d="M142.809,287.387h-.822a1,1,0,0,0-1,1v5.047a3.731,3.731,0,0,1-3.731,3.731h-3.835a3.731,3.731,0,0,1-3.731-3.731v-5.047a1,1,0,0,0-1-1h-.822a1,1,0,0,0-1,1v4.936a6.662,6.662,0,0,0,6.662,6.662h3.613a6.662,6.662,0,0,0,6.662-6.662v-4.936A1,1,0,0,0,142.809,287.387Z" transform="translate(-126.872 -280.807)" fill="#fff"/>
    </g>
    <path id="Path_14223" data-name="Path 14223" d="M645.635,270.752a5.943,5.943,0,0,0-5.5-5.375h0a92.988,92.988,0,0,0-17.516,0h0a5.943,5.943,0,0,0-5.5,5.375,55.866,55.866,0,0,0,0,7.572,5.943,5.943,0,0,0,5.5,5.375l.607.058a86.524,86.524,0,0,0,16.3,0l.608-.058a5.943,5.943,0,0,0,5.5-5.375A55.786,55.786,0,0,0,645.635,270.752Zm-17.122,5.7a1.927,1.927,0,1,1-3.854.03v-3.854a1.927,1.927,0,1,1,3.854.03Zm9.589,0a1.927,1.927,0,1,1-3.854.03v-3.854a1.927,1.927,0,1,1,3.854.03Z" transform="translate(-346.288 0)" fill="#26a9e0"/>
  </g>
</svg>
